<svg width="1044" height="320" viewBox="0 0 1044 320" fill="none" xmlns="http://www.w3.org/2000/svg">
<path d="M103.686 2.53172V118.063H95.9495L30.2755 47.919V116H7.06604V0.468655H14.6306L80.4766 70.2688V2.53172H103.686ZM167.814 117.891C159.447 117.891 151.768 115.943 144.777 112.046C137.9 108.034 132.456 102.647 128.444 95.8852C124.433 89.0083 122.427 81.5011 122.427 73.3634C122.427 65.2258 124.433 57.7759 128.444 51.0136C132.456 44.1368 137.957 38.7499 144.949 34.853C151.94 30.9561 159.619 29.0076 167.986 29.0076C176.353 29.0076 184.032 31.0134 191.024 35.0249C198.015 38.9218 203.517 44.2514 207.528 51.0136C211.654 57.7759 213.717 65.2258 213.717 73.3634C213.717 81.5011 211.654 89.0083 207.528 95.8852C203.517 102.647 197.958 108.034 190.852 112.046C183.86 115.943 176.181 117.891 167.814 117.891ZM167.986 96.5729C174.29 96.5729 179.505 94.3952 183.631 90.0398C187.872 85.6845 189.992 80.183 189.992 73.5354C189.992 66.8877 187.872 61.3289 183.631 56.859C179.505 52.389 174.29 50.154 167.986 50.154C161.568 50.154 156.295 52.389 152.169 56.859C148.043 61.2143 145.98 66.7731 145.98 73.5354C145.98 80.183 148.043 85.6845 152.169 90.0398C156.295 94.3952 161.568 96.5729 167.986 96.5729ZM320.596 117.891C312.229 117.891 304.55 115.943 297.559 112.046C290.682 108.034 285.237 102.647 281.226 95.8852C277.214 89.0083 275.209 81.5011 275.209 73.3634C275.209 65.2258 277.214 57.7759 281.226 51.0136C285.237 44.1368 290.739 38.7499 297.73 34.853C304.722 30.9561 312.401 29.0076 320.768 29.0076C329.135 29.0076 336.814 31.0134 343.805 35.0249C350.797 38.9218 356.298 44.2514 360.31 51.0136C364.436 57.7759 366.499 65.2258 366.499 73.3634C366.499 81.5011 364.436 89.0083 360.31 95.8852C356.298 102.647 350.74 108.034 343.634 112.046C336.642 115.943 328.963 117.891 320.596 117.891ZM320.768 96.5729C327.072 96.5729 332.287 94.3952 336.413 90.0398C340.654 85.6845 342.774 80.183 342.774 73.5354C342.774 66.8877 340.654 61.3289 336.413 56.859C332.287 52.389 327.072 50.154 320.768 50.154C314.35 50.154 309.077 52.389 304.951 56.859C300.825 61.2143 298.762 66.7731 298.762 73.5354C298.762 80.183 300.825 85.6845 304.951 90.0398C309.077 94.3952 314.35 96.5729 320.768 96.5729ZM430.866 29.0076C440.723 29.0076 448.517 32.1595 454.248 38.4633C459.978 44.6525 462.844 52.9048 462.844 63.2201V116H439.806V66.3146C439.806 61.3862 438.316 57.432 435.336 54.4521C432.471 51.3575 428.689 49.8102 423.989 49.8102C419.29 49.8102 415.393 51.3575 412.299 54.4521C409.319 57.432 407.829 61.3862 407.829 66.3146V116H384.619V30.8988H405.938V38.6353C408.918 35.6553 412.528 33.3057 416.769 31.5865C421.124 29.8673 425.823 29.0076 430.866 29.0076ZM563.411 81.2718H503.754C505.13 86.6587 507.88 90.8421 512.007 93.8221C516.247 96.6875 521.462 98.1202 527.651 98.1202C536.018 98.1202 543.927 95.2548 551.377 89.5241L561.004 105.341C550.918 113.822 539.571 118.063 526.964 118.063C518.138 118.063 510.173 116.115 503.067 112.218C495.961 108.321 490.402 102.991 486.39 96.229C482.379 89.3521 480.373 81.7876 480.373 73.5354C480.373 65.2831 482.321 57.7759 486.218 51.0136C490.115 44.1368 495.445 38.7499 502.207 34.853C509.084 30.9561 516.648 29.0076 524.901 29.0076C532.694 29.0076 539.629 30.7842 545.703 34.3372C551.778 37.7757 556.477 42.5322 559.801 48.6067C563.239 54.5667 564.958 61.2143 564.958 68.5496C564.958 72.6757 564.443 76.9165 563.411 81.2718ZM524.041 47.7471C519.113 47.7471 514.815 49.2944 511.147 52.389C507.479 55.4836 505.015 59.667 503.754 64.9393H542.437C542.322 59.667 540.488 55.4836 536.935 52.389C533.382 49.2944 529.084 47.7471 524.041 47.7471ZM671.998 118.063C663.632 118.063 655.952 116.115 648.961 112.218C642.084 108.206 636.583 102.819 632.457 96.0571C628.445 89.1802 626.439 81.6157 626.439 73.3634C626.439 65.1112 628.445 57.6039 632.457 50.8417C636.583 44.0794 642.084 38.7499 648.961 34.853C655.952 30.9561 663.632 29.0076 671.998 29.0076C680.365 29.0076 687.701 30.8988 694.004 34.6811C700.308 38.3487 705.294 43.4491 708.962 49.9821L692.801 62.5324C690.165 58.6355 687.185 55.5982 683.861 53.4205C680.652 51.2428 676.812 50.154 672.342 50.154C665.809 50.154 660.422 52.389 656.182 56.859C652.056 61.2143 649.993 66.7158 649.993 73.3634C649.993 80.1257 652.056 85.7418 656.182 90.2118C660.422 94.5671 665.809 96.7448 672.342 96.7448C676.698 96.7448 680.48 95.7132 683.689 93.6502C687.013 91.4725 690.05 88.4352 692.801 84.5383L708.962 96.9167C705.294 103.45 700.251 108.607 693.833 112.39C687.529 116.172 680.251 118.063 671.998 118.063ZM761.012 29.0076C772.13 29.0076 780.955 32.1595 787.488 38.4633C794.136 44.6525 797.46 53.6498 797.46 65.455V116H776.141V107.748C773.047 110.957 769.264 113.478 764.795 115.312C760.439 117.146 755.568 118.063 750.181 118.063C741.127 118.063 733.963 115.713 728.691 111.014C723.419 106.2 720.783 100.069 720.783 92.6187C720.783 84.9395 723.648 78.9222 729.379 74.5669C735.224 70.0969 743.075 67.8619 752.932 67.8619H774.25V64.0797C774.25 59.3805 772.875 55.7128 770.124 53.0767C767.488 50.4405 763.591 49.1225 758.433 49.1225C754.078 49.1225 750.181 50.0967 746.743 52.0452C743.304 53.879 739.694 56.8017 735.912 60.8132L723.877 46.5437C733.734 34.853 746.112 29.0076 761.012 29.0076ZM756.37 101.043C761.413 101.043 765.654 99.4955 769.093 96.4009C772.531 93.1917 774.25 89.1229 774.25 84.1945V83.163H756.026C752.244 83.163 749.322 83.908 747.258 85.3979C745.195 86.7733 744.164 88.8937 744.164 91.759C744.164 94.6244 745.253 96.9167 747.43 98.6359C749.723 100.241 752.703 101.043 756.37 101.043ZM872.06 30.8988V51.3575H865.871C858.88 51.3575 853.321 53.2486 849.195 57.0309C845.069 60.6985 843.005 66.2 843.005 73.5354V116H819.796V30.8988H841.114V41.0422C843.98 37.4891 847.418 34.7384 851.43 32.7899C855.441 30.8415 859.796 29.8673 864.496 29.8673C867.361 29.8673 869.883 30.2111 872.06 30.8988ZM962.995 81.2718H903.338C904.713 86.6587 907.464 90.8421 911.59 93.8221C915.831 96.6875 921.046 98.1202 927.235 98.1202C935.602 98.1202 943.51 95.2548 950.96 89.5241L960.588 105.341C950.502 113.822 939.155 118.063 926.547 118.063C917.722 118.063 909.756 116.115 902.65 112.218C895.544 108.321 889.985 102.991 885.974 96.229C881.962 89.3521 879.956 81.7876 879.956 73.5354C879.956 65.2831 881.905 57.7759 885.802 51.0136C889.699 44.1368 895.028 38.7499 901.791 34.853C908.667 30.9561 916.232 29.0076 924.484 29.0076C932.278 29.0076 939.212 30.7842 945.287 34.3372C951.361 37.7757 956.06 42.5322 959.384 48.6067C962.823 54.5667 964.542 61.2143 964.542 68.5496C964.542 72.6757 964.026 76.9165 962.995 81.2718ZM923.625 47.7471C918.696 47.7471 914.398 49.2944 910.73 52.389C907.063 55.4836 904.599 59.667 903.338 64.9393H942.02C941.906 59.667 940.072 55.4836 936.519 52.389C932.966 49.2944 928.668 47.7471 923.625 47.7471ZM1010.16 118.063C1002.71 118.063 995.947 116.63 989.872 113.765C983.798 110.785 978.812 106.716 974.915 101.559L986.606 87.461C994.056 95.1402 1002.02 98.9798 1010.5 98.9798C1013.6 98.9798 1016.18 98.4067 1018.24 97.2605C1020.3 95.9998 1021.33 94.2233 1021.33 91.931C1021.33 90.0971 1020.65 88.7218 1019.27 87.8049C1018.01 86.7733 1015.78 85.5699 1012.57 84.1945L1003.45 80.4122C995.66 77.203 989.815 73.65 985.918 69.7531C982.136 65.8562 980.245 60.7558 980.245 54.4521C980.245 46.429 983.11 40.1826 988.841 35.7126C994.686 31.2426 1002.25 29.0076 1011.53 29.0076C1024.26 29.0076 1034.46 33.2484 1042.14 41.7299L1030.45 55.9993C1024.71 50.6125 1018.35 47.919 1011.36 47.919C1008.5 47.919 1006.26 48.4348 1004.66 49.4663C1003.05 50.4979 1002.25 51.9878 1002.25 53.9363C1002.25 55.5409 1002.88 56.859 1004.14 57.8905C1005.52 58.922 1007.87 60.1255 1011.19 61.5008L1019.44 64.9393C1027.69 68.2631 1033.71 71.8734 1037.49 75.7703C1041.39 79.5526 1043.34 84.5956 1043.34 90.8994C1043.34 99.3809 1040.19 106.029 1033.88 110.842C1027.69 115.656 1019.79 118.063 1010.16 118.063Z" fill="#F1A717"/>
<path d="M57.7829 200.695C64.889 200.695 71.2501 202.472 76.8662 206.025C82.5969 209.463 87.0669 214.277 90.2761 220.466C93.4853 226.656 95.0899 233.647 95.0899 241.441C95.0899 250.151 93.0842 258.174 89.0727 265.51C85.0612 272.731 79.617 278.461 72.7401 282.702C65.8632 286.828 58.2987 288.891 50.0465 288.891C43.5134 288.891 37.6108 287.63 32.3385 285.109C27.1809 282.473 23.1694 278.92 20.304 274.45L18.069 287H0.0172571L22.539 158.059H40.5908L31.1351 211.526C34.4589 208.088 38.4131 205.452 42.9977 203.618C47.6969 201.67 52.6253 200.695 57.7829 200.695ZM48.6711 272.559C53.7141 272.559 58.356 271.241 62.5967 268.604C66.9521 265.968 70.3332 262.415 72.7401 257.945C75.2616 253.361 76.5224 248.375 76.5224 242.988C76.5224 235.309 74.2874 229.12 69.8174 224.421C65.3475 219.607 59.5021 217.2 52.2814 217.2C47.2384 217.2 42.5965 218.575 38.3558 221.326C34.115 224.077 30.7339 227.859 28.2124 232.673C25.8055 237.372 24.6021 242.587 24.6021 248.318C24.6021 255.424 26.837 261.269 31.307 265.854C35.8916 270.324 41.6796 272.559 48.6711 272.559ZM130.662 158.059H148.713L126.02 287H107.968L130.662 158.059ZM196.136 288.891C188.113 288.891 180.892 287.057 174.473 283.39C168.055 279.722 163.012 274.736 159.344 268.432C155.677 262.014 153.843 254.851 153.843 246.942C153.843 238.575 155.963 230.839 160.204 223.733C164.445 216.627 170.175 211.011 177.396 206.885C184.617 202.758 192.468 200.695 200.949 200.695C208.972 200.695 216.25 202.529 222.783 206.197C229.316 209.864 234.417 214.908 238.084 221.326C241.867 227.744 243.758 234.908 243.758 242.816C243.758 251.183 241.58 258.919 237.225 266.026C232.984 273.017 227.196 278.576 219.861 282.702C212.64 286.828 204.732 288.891 196.136 288.891ZM196.823 272.387C202.095 272.387 206.852 271.126 211.093 268.604C215.448 265.968 218.886 262.415 221.408 257.945C223.93 253.475 225.19 248.49 225.19 242.988C225.19 235.538 222.841 229.406 218.141 224.592C213.442 219.664 207.482 217.2 200.262 217.2C195.104 217.2 190.405 218.518 186.164 221.154C181.923 223.79 178.542 227.4 176.021 231.985C173.614 236.455 172.41 241.383 172.41 246.77C172.41 254.335 174.645 260.524 179.115 265.338C183.7 270.037 189.602 272.387 196.823 272.387ZM353.512 202.586L339.759 281.842C337.696 293.648 332.595 302.931 324.458 309.694C316.32 316.456 306.119 319.837 293.855 319.837C285.603 319.837 277.867 318.175 270.646 314.851C263.425 311.527 257.293 306.771 252.25 300.582L263.597 289.063C271.85 298.576 281.936 303.333 293.855 303.333C301.42 303.333 307.667 301.384 312.595 297.487C317.523 293.705 320.561 288.318 321.707 281.327L322.738 275.825C315.518 282.129 306.578 285.281 295.919 285.281C288.698 285.281 282.222 283.676 276.491 280.467C270.761 277.258 266.233 272.845 262.91 267.229C259.7 261.613 258.096 255.252 258.096 248.146C258.096 239.435 260.102 231.469 264.113 224.249C268.239 216.913 273.798 211.183 280.789 207.056C287.781 202.816 295.46 200.695 303.827 200.695C310.36 200.695 316.205 201.956 321.363 204.478C326.521 206.885 330.532 210.323 333.397 214.793L335.461 202.586H353.512ZM300.732 269.636C306.005 269.636 310.761 268.375 315.002 265.854C319.357 263.332 322.738 259.836 325.145 255.366C327.667 250.896 328.928 245.911 328.928 240.409C328.928 233.418 326.693 227.744 322.223 223.389C317.753 218.919 312.022 216.684 305.03 216.684C299.758 216.684 294.944 218.002 290.589 220.638C286.348 223.16 282.967 226.713 280.446 231.297C278.039 235.767 276.835 240.753 276.835 246.255C276.835 253.246 279.013 258.919 283.368 263.275C287.724 267.516 293.512 269.636 300.732 269.636ZM378.077 288.891C374.295 288.891 371.085 287.63 368.449 285.109C365.928 282.587 364.667 279.435 364.667 275.653C364.667 271.756 365.928 268.547 368.449 266.026C371.085 263.504 374.295 262.243 378.077 262.243C381.859 262.243 385.011 263.504 387.533 266.026C390.054 268.547 391.315 271.756 391.315 275.653C391.315 279.435 390.054 282.587 387.533 285.109C385.011 287.63 381.859 288.891 378.077 288.891Z" fill="#1D24CD"/>
</svg>
